<svg width="26" height="27" viewBox="0 0 26 27" fill="none" xmlns="http://www.w3.org/2000/svg">
<path d="M23.0655 2.61732C22.3856 2.00544 19.6333 0.0463783 13.4979 0.0195418C13.4979 0.0195418 6.26607 -0.409842 2.74059 2.75687C0.777731 4.67836 0.0868917 7.48546 0.0156146 10.9742C-0.0556625 14.4576 -0.148871 20.9896 6.28251 22.7608H6.288L6.28251 25.4606C6.28251 25.4606 6.24413 26.5555 6.97884 26.7756C7.86706 27.0439 8.39341 26.212 9.24325 25.3156C9.7093 24.8219 10.3508 24.1026 10.8388 23.5498C15.236 23.9094 18.6189 23.0828 19.0027 22.9594C19.891 22.6749 24.9187 22.047 25.7357 15.5149C26.58 8.79508 25.3245 4.53881 23.0655 2.61732ZM23.8112 15.0426C23.1204 20.4958 19.0466 20.8393 18.2954 21.0755C17.9774 21.1775 15.0057 21.902 11.2664 21.6605C11.2664 21.6605 8.48114 24.9507 7.61485 25.8041C7.47778 25.9383 7.31877 25.9919 7.2146 25.9651C7.06656 25.9275 7.0227 25.7558 7.02818 25.5035C7.02818 25.1385 7.05011 21.0111 7.05011 21.0111C7.04463 21.0111 7.04463 21.0111 7.05011 21.0111C1.60564 19.5351 1.92365 13.9745 1.98396 11.0655C2.04427 8.15637 2.60352 5.76792 4.26482 4.1631C7.24201 1.52239 13.3883 1.9142 13.3883 1.9142C18.5751 1.93567 21.0588 3.46535 21.6345 3.97524C23.548 5.58544 24.524 9.42306 23.8112 15.0426Z" fill="white"/>
<path d="M16.0279 11.1671C15.847 11.1671 15.6934 11.0275 15.6825 10.845C15.6222 9.69104 15.0684 9.12748 13.9389 9.06844C13.747 9.0577 13.599 8.89668 13.6099 8.70883C13.6209 8.52097 13.7854 8.37606 13.9773 8.38679C15.4686 8.4673 16.302 9.3046 16.3788 10.8074C16.3898 10.9953 16.2417 11.1563 16.0498 11.1617C16.0389 11.1671 16.0334 11.1671 16.0279 11.1671Z" fill="white"/>
<path d="M17.8041 11.7471H17.7986C17.6067 11.7418 17.4532 11.5861 17.4586 11.3982C17.4861 10.2389 17.1461 9.29963 16.4224 8.52674C15.7041 7.75385 14.7117 7.3352 13.4013 7.24395C13.2094 7.22785 13.0669 7.06683 13.0833 6.87897C13.0998 6.69112 13.2643 6.55157 13.4562 6.56767C14.9365 6.67502 16.1044 7.17954 16.9378 8.07052C17.7766 8.96686 18.1824 10.0886 18.155 11.4143C18.1495 11.6022 17.9905 11.7471 17.8041 11.7471Z" fill="white"/>
<path d="M19.6239 12.4448C19.432 12.4448 19.2785 12.2945 19.2785 12.1067C19.262 10.0295 18.6534 8.44615 17.4143 7.25998C16.1916 6.08991 14.64 5.49414 12.8142 5.47803C12.6223 5.47803 12.4688 5.32238 12.4688 5.13453C12.4688 4.94667 12.6278 4.79639 12.8142 4.79639C14.8264 4.81249 16.537 5.47267 17.8913 6.77155C19.251 8.07044 19.9474 9.86312 19.9693 12.0959C19.9748 12.2891 19.8213 12.4448 19.6239 12.4448C19.6294 12.4448 19.6294 12.4448 19.6239 12.4448Z" fill="white"/>
<path d="M14.0182 15.3697C14.0182 15.3697 14.5062 15.4126 14.7694 15.0959L15.2793 14.468C15.526 14.1567 16.1236 13.9581 16.7048 14.2747C17.0283 14.4519 17.615 14.8061 17.9768 15.0691C18.3661 15.3482 19.1556 15.9923 19.1611 15.9976C19.5394 16.3089 19.6272 16.7652 19.3695 17.2536C19.3695 17.2536 19.3695 17.259 19.3695 17.2643C19.1063 17.7205 18.7499 18.1499 18.3058 18.5471C18.3003 18.5471 18.3003 18.5525 18.2948 18.5525C17.9275 18.853 17.5656 19.0248 17.2147 19.0624C17.1709 19.0731 17.1215 19.0731 17.0557 19.0731C16.9022 19.0731 16.7487 19.0516 16.5952 19.0033L16.5842 18.9872C16.0359 18.8369 15.1257 18.4612 13.6125 17.64C12.6256 17.1087 11.8086 16.5666 11.1123 16.0245C10.7449 15.74 10.3721 15.4233 9.98832 15.0476C9.97735 15.0369 9.9609 15.0208 9.94994 15.0101C9.93897 14.9993 9.92252 14.9832 9.91156 14.9725C9.90059 14.9618 9.88414 14.9457 9.87318 14.9349C9.86221 14.9242 9.84576 14.9081 9.8348 14.8973C9.45648 14.5216 9.12751 14.1567 8.83692 13.797C8.28315 13.1208 7.72938 12.3157 7.18658 11.3496C6.3477 9.86282 5.9639 8.97184 5.81038 8.44048L5.79393 8.42974C5.74459 8.27946 5.72266 8.12918 5.72266 7.97889C5.72266 7.91448 5.72266 7.86618 5.73362 7.82324C5.77749 7.47436 5.95294 7.12549 6.25449 6.76588C6.25449 6.76051 6.25998 6.76051 6.25998 6.75515C6.66571 6.31503 7.10433 5.97152 7.57038 5.71389C7.57038 5.71389 7.57586 5.71389 7.58134 5.71389C8.0748 5.46163 8.54084 5.5475 8.86433 5.91785C8.86433 5.91785 9.52776 6.69611 9.81286 7.07718C10.0815 7.43679 10.4434 8.00573 10.6243 8.3224C10.9478 8.89133 10.7449 9.47637 10.4269 9.7179L9.78545 10.2171C9.46196 10.4747 9.50582 10.9524 9.50582 10.9524C9.50582 10.9524 10.4544 14.4841 14.0182 15.3697Z" fill="white"/>
</svg>
